<svg width="22" height="22" viewBox="0 0 22 22" fill="none" xmlns="http://www.w3.org/2000/svg">
<path d="M14.6629 1.83301H7.33645C4.30956 1.83301 1.83301 4.30956 1.83301 7.33645V14.6629C1.83301 17.6898 4.30956 20.1663 7.33645 20.1663H14.6629C17.6898 20.1663 20.1663 17.6898 20.1663 14.6629V7.33645C20.1663 4.30956 17.7242 1.83301 14.6629 1.83301ZM15.798 11.0169C15.798 13.631 13.6998 15.7292 11.0857 15.7292C8.47153 15.7292 6.37335 13.631 6.37335 11.0169C6.37335 8.40274 8.47153 6.30455 11.0857 6.30455C13.6654 6.30455 15.798 8.40274 15.798 11.0169ZM15.798 7.40524C15.1788 7.40524 14.6973 6.92369 14.6973 6.30455C14.6973 5.68542 15.1788 5.20386 15.798 5.20386C16.4171 5.20386 16.8987 5.68542 16.8987 6.30455C16.8987 6.88929 16.3827 7.40524 15.798 7.40524Z" fill="white"/>
<path d="M11 8.25C9.49405 8.25 8.25 9.46131 8.25 11C8.25 12.5387 9.46131 13.75 11 13.75C12.506 13.75 13.75 12.5387 13.75 11C13.7173 9.46131 12.506 8.25 11 8.25Z" fill="white"/>
</svg>
