<svg width="23" height="22" viewBox="0 0 23 22" fill="none" xmlns="http://www.w3.org/2000/svg">
<g clip-path="url(#clip0_192_10421)">
<mask id="mask0_192_10421" style="mask-type:alpha" maskUnits="userSpaceOnUse" x="0" y="0" width="23" height="22">
<rect x="0.205078" width="22" height="22" fill="#D9D9D9"/>
</mask>
<g mask="url(#mask0_192_10421)">
<path d="M3.87142 18.3337C3.36725 18.3337 2.93566 18.1541 2.57663 17.7951C2.2176 17.4361 2.03809 17.0045 2.03809 16.5003V5.50033C2.03809 4.99616 2.2176 4.56456 2.57663 4.20553C2.93566 3.84651 3.36725 3.66699 3.87142 3.66699H18.5381C19.0423 3.66699 19.4739 3.84651 19.8329 4.20553C20.1919 4.56456 20.3714 4.99616 20.3714 5.50033V16.5003C20.3714 17.0045 20.1919 17.4361 19.8329 17.7951C19.4739 18.1541 19.0423 18.3337 18.5381 18.3337H3.87142ZM11.2048 11.917L18.5381 7.33366V5.50033L11.2048 10.0837L3.87142 5.50033V7.33366L11.2048 11.917Z" fill="white"/>
</g>
</g>
<defs>
<clipPath id="clip0_192_10421">
<rect width="22" height="22" fill="white" transform="translate(0.205078)"/>
</clipPath>
</defs>
</svg>
