<svg width="22" height="22" viewBox="0 0 22 22" fill="none" xmlns="http://www.w3.org/2000/svg">
<path d="M13.75 6.41602V6.42518M16.5 6.41602V6.42518M19.25 6.41602V6.42518M4.58333 3.66602H8.25L10.0833 8.24935L7.79167 9.62435C8.77338 11.6149 10.3844 13.226 12.375 14.2077L13.75 11.916L18.3333 13.7493V17.416C18.3333 17.9022 18.1402 18.3686 17.7964 18.7124C17.4525 19.0562 16.9862 19.2493 16.5 19.2493C12.9243 19.0321 9.55181 17.5136 7.01876 14.9806C4.48571 12.4475 2.9673 9.07502 2.75 5.49935C2.75 5.01312 2.94315 4.5468 3.28697 4.20299C3.63079 3.85917 4.0971 3.66602 4.58333 3.66602Z" stroke="white" stroke-width="1.5" stroke-linecap="round" stroke-linejoin="round"/>
</svg>
