<svg width="23" height="22" viewBox="0 0 23 22" fill="none" xmlns="http://www.w3.org/2000/svg">
<path d="M21.3669 4.67261C20.6245 5.00486 19.7997 5.21251 18.9749 5.3371C19.841 4.7972 20.5008 4.00811 20.7895 3.0529C19.9647 3.55127 19.0986 3.88352 18.1501 4.04964C16.583 2.3884 13.9848 2.30534 12.2939 3.88352C11.2217 4.88026 10.768 6.41691 11.0979 7.8705C7.75746 7.70437 4.66441 6.12619 2.56114 3.50974C1.44764 5.42017 2.02501 7.82897 3.8396 9.0749C3.17975 9.03337 2.56114 8.86724 1.98377 8.53499C1.94253 10.5285 3.34471 12.2728 5.28302 12.6466C4.66441 12.8127 4.0458 12.8542 3.42719 12.7296C3.96332 14.4324 5.53046 15.5953 7.30381 15.6368C5.5717 17.0073 3.38595 17.6303 1.2002 17.3811C3.09726 18.5855 5.28302 19.25 7.55125 19.25C15.222 19.25 19.5523 12.7296 19.3048 6.87375C20.1296 6.25079 20.8307 5.50323 21.3669 4.67261Z" fill="white"/>
</svg>
