<svg width="208" height="46" viewBox="0 0 208 46" fill="none" xmlns="http://www.w3.org/2000/svg">
<path d="M19.8335 0L0 11.4499V34.3543L19.8335 45.8042L39.667 34.3543V11.4499L19.8335 0ZM35.9231 32.1926L19.829 41.4809L3.73939 32.1926V13.6116L19.829 4.32325L35.9186 13.6116V32.1926H35.9231Z" fill="white"/>
<path d="M14.8155 20.9384H12.1547V16.6374L8.46875 18.8838V26.679L12.1547 28.9253V24.6243C13.6255 24.6243 14.8155 25.8143 14.8155 27.2851V32.5131L18.5014 34.7594V10.7988L14.8155 13.0451V20.9384Z" fill="white"/>
<path d="M31.1986 27.4277V24.8873V19.6281L27.5127 17.3818V26.1753L24.8519 27.6729V13.0451L21.166 10.7988V30.6813V34.7594V35.0046L31.1986 29.2105V27.4277Z" fill="white"/>
<path d="M70.2737 15.1016V20.6675L60.7064 20.6675V15.1068H55.373L55.3783 31.1756H60.7117L60.7064 25.5886H70.279V31.1703H75.6123L75.607 15.1016L70.2737 15.1016Z" fill="white"/>
<path d="M96.5382 17.4007C95.9356 16.7823 95.1586 16.2854 94.2124 15.8995C93.2663 15.519 92.2355 15.2494 91.1202 15.0855C90.0049 14.9269 88.7258 14.8477 87.2722 14.8477C83.6726 14.8477 80.9927 15.4925 79.2378 16.7823C77.4829 18.072 76.6055 20.0594 76.6055 22.7446C76.6055 25.6465 77.4618 27.782 79.1796 29.1668C80.8975 30.5464 83.6461 31.2389 87.4307 31.2389C88.9583 31.2389 90.2904 31.1543 91.4374 30.9852C92.5791 30.816 93.6098 30.5412 94.5137 30.15C95.4228 29.7589 96.1523 29.2514 96.7126 28.6171C97.2676 27.9828 97.6957 27.2111 97.9917 26.2914C98.2877 25.3769 98.4357 24.2934 98.4357 23.0406C98.4357 21.772 98.2666 20.6726 97.9336 19.7317C97.5953 18.7961 97.1302 18.0138 96.5276 17.3954L96.5382 17.4007ZM91.2418 26.0429C90.3591 26.6984 89.1063 27.0261 87.4889 27.0261C85.8397 27.0261 84.5976 26.6614 83.7571 25.9372C82.9167 25.2131 82.4991 24.2458 82.4991 23.0406C82.4991 22.4169 82.5995 21.8566 82.7951 21.3703C82.996 20.884 83.2973 20.4612 83.699 20.1123C84.1007 19.7634 84.6187 19.4991 85.2424 19.3247C85.8662 19.1503 86.5903 19.0604 87.4149 19.0604C88.9848 19.0604 90.2375 19.3987 91.1678 20.0806C92.0981 20.7625 92.5632 21.7456 92.5632 23.0459C92.5632 24.3885 92.1192 25.3875 91.2365 26.0429H91.2418Z" fill="white"/>
<path d="M104.837 25.837V15.1016H99.5039L99.5092 31.1703L116.492 31.1703V25.837L104.837 25.837Z" fill="white"/>
<path d="M136.964 17.3948C136.361 16.7764 135.584 16.2795 134.638 15.8937C133.692 15.5131 132.661 15.2435 131.546 15.0797C130.431 14.9211 129.152 14.8418 127.698 14.8418C124.098 14.8418 121.418 15.4867 119.664 16.7764C117.909 18.0661 117.031 20.0536 117.031 22.7388C117.031 25.6407 117.888 27.7761 119.605 29.161C121.323 30.5406 124.072 31.233 127.857 31.233C129.384 31.233 130.716 31.1484 131.863 30.9793C133.005 30.8101 134.036 30.5353 134.939 30.1441C135.849 29.753 136.578 29.2456 137.138 28.6113C137.693 27.977 138.122 27.2052 138.418 26.2855C138.714 25.3711 138.862 24.2875 138.862 23.0348C138.862 21.7662 138.692 20.6667 138.359 19.7259C138.021 18.785 137.556 18.008 136.953 17.3895L136.964 17.3948ZM131.668 26.0371C130.785 26.6925 129.532 27.0202 127.915 27.0202C126.297 27.0202 125.023 26.6608 124.183 25.9314C123.342 25.2019 122.925 24.2399 122.925 23.0348C122.925 22.411 123.025 21.8507 123.221 21.3645C123.422 20.8782 123.723 20.4553 124.125 20.1064C124.526 19.7576 125.044 19.4933 125.668 19.3189C126.292 19.1444 127.016 19.0546 127.841 19.0546C129.411 19.0546 130.663 19.3929 131.594 20.0747C132.524 20.7566 132.989 21.7397 132.989 23.04C132.989 24.3826 132.545 25.3816 131.662 26.0371H131.668Z" fill="white"/>
<path d="M148.995 26.4707L143.704 15.0957L137.594 15.0957L145.517 31.1645L152.494 31.1645L160.37 15.0957H154.255L148.995 26.4707Z" fill="white"/>
<path d="M167.119 15.0957H161.785V31.1645H167.119V15.0957Z" fill="white"/>
<path d="M185.915 22.0717C184.832 21.8127 182.273 21.5219 178.246 21.2048C178.23 21.1889 178.209 21.1837 178.177 21.1837C176.147 21.0145 174.931 20.8982 174.524 20.8295C174.117 20.7608 173.911 20.6287 173.895 20.4278C173.895 20.2005 173.98 20.0366 174.149 19.9468C174.318 19.8569 174.715 19.7776 175.338 19.7195C175.962 19.6613 176.956 19.6296 178.314 19.6296C179.335 19.6296 180.159 19.6561 180.788 19.7089C181.412 19.7618 181.872 19.8569 182.162 19.9838C182.453 20.1106 182.638 20.2481 182.723 20.3855C182.807 20.5229 182.85 20.7132 182.85 20.9564H188.526C188.526 20.1476 188.463 19.4658 188.341 18.9055C188.22 18.3505 188.003 17.843 187.691 17.3832C187.379 16.9233 186.983 16.5639 186.502 16.2943C186.021 16.03 185.387 15.8027 184.589 15.6177C183.796 15.4327 182.887 15.3111 181.866 15.2424C180.846 15.1737 179.615 15.1367 178.182 15.1367C177.326 15.1367 176.591 15.1473 175.973 15.1579C175.354 15.1737 174.725 15.2054 174.086 15.2477C173.446 15.2953 172.907 15.3534 172.474 15.4327C172.04 15.512 171.607 15.6124 171.168 15.7393C170.735 15.8714 170.38 16.03 170.106 16.2203C169.831 16.4106 169.572 16.6379 169.329 16.8969C169.085 17.1559 168.895 17.4519 168.758 17.7902C168.62 18.1232 168.515 18.509 168.435 18.9372C168.361 19.3653 168.324 19.8464 168.324 20.3802C168.324 20.8242 168.372 21.2312 168.472 21.6065C168.573 21.9818 168.684 22.3148 168.816 22.6002C168.948 22.891 169.159 23.15 169.455 23.3773C169.751 23.6045 170.026 23.8054 170.28 23.9745C170.534 24.1437 170.909 24.2917 171.411 24.4186C171.913 24.5507 172.352 24.6564 172.717 24.741C173.081 24.8256 173.621 24.9101 174.329 24.9947C175.037 25.0793 175.634 25.1427 176.115 25.1903C176.596 25.2379 177.289 25.296 178.187 25.37C178.753 25.4176 179.461 25.4704 180.318 25.5286C181.491 25.6026 182.21 25.6713 182.469 25.7347C182.728 25.7981 182.86 25.925 182.86 26.1259C182.86 26.4589 182.675 26.6597 182.3 26.7232C181.925 26.7866 180.867 26.813 179.128 26.813H178.579C177.527 26.813 176.713 26.7972 176.142 26.7654C175.571 26.7337 175.122 26.6756 174.805 26.5804C174.482 26.4906 174.281 26.3743 174.197 26.2369C174.112 26.0994 174.07 25.9039 174.07 25.6396H168.552C168.552 26.2527 168.573 26.776 168.62 27.22C168.668 27.664 168.758 28.0816 168.895 28.478C169.033 28.8745 169.202 29.1969 169.408 29.4506C169.614 29.7043 169.899 29.9369 170.264 30.1483C170.629 30.3598 171.041 30.5289 171.501 30.6505C171.961 30.7721 172.537 30.8725 173.229 30.9465C173.922 31.0205 174.672 31.0786 175.471 31.1051C176.274 31.1368 177.22 31.1526 178.32 31.1526C179.921 31.1526 181.259 31.1262 182.337 31.0734C183.415 31.0205 184.372 30.9148 185.207 30.7615C186.047 30.6082 186.703 30.4232 187.173 30.2012C187.644 29.9792 188.03 29.6726 188.331 29.2762C188.627 28.8798 188.828 28.4463 188.928 27.9706C189.029 27.5002 189.076 26.8923 189.076 26.1629C189.076 25.1269 188.939 24.334 188.664 23.7843C188.252 22.9755 187.337 22.4047 185.915 22.0664V22.0717Z" fill="white"/>
<path d="M195.595 26.6921V25.2544L207.224 25.2491V20.9729L195.595 20.9729V19.551L208.001 19.551V15.0898L190.262 15.0898L190.267 31.1586L208.001 31.1586V26.6921L195.595 26.6921Z" fill="white"/>
</svg>
